<?xml version="1.0" encoding="utf-8"?>
<!-- Generator: Adobe Illustrator 26.5.0, SVG Export Plug-In . SVG Version: 6.00 Build 0)  -->
<svg version="1.0" id="Layer_1" xmlns="http://www.w3.org/2000/svg" xmlns:xlink="http://www.w3.org/1999/xlink" x="0px" y="0px"
	 viewBox="0 0 800 1358.4" style="enable-background:new 0 0 800 1358.4;" xml:space="preserve">
<style type="text/css">
	.st0{fill:none;}
	.st1{fill:#231F20;}
	.st2{font-family:'Roboto-Regular';}
	.st3{font-size:24px;}
	.st4{font-family:'Roboto-Bold';}
	.st5{font-size:26px;}
	.st6{font-size:16.5px;}
	.st7{fill:none;stroke:#231F20;stroke-width:0.3;stroke-miterlimit:10;}
</style>
<g>
	<rect x="161" y="318.2" class="st0" width="478" height="75.7"/>
	<text transform="matrix(1 0 0 1 179.0256 336.4797)"><tspan x="0" y="0" class="st1 st2 st3">Mao Zedong’s old house. No 7, Lane 120, </tspan><tspan x="105.8" y="28.8" class="st1 st2 st3">Maoming North Road</tspan></text>
</g>
<image style="overflow:visible;" width="776" height="1177" xlink:href="F7D6040EFC7540D2.jpg"  transform="matrix(1 0 0 1 12 12.8052)">
</image>
<image style="overflow:visible;opacity:0.8;" width="608" height="429" xlink:href="../shikumen-layout_Folder/Links/shkm-mod01.png"  transform="matrix(0.6379 0 0 0.6379 206.0865 444.8674)">
</image>
<text transform="matrix(1 0 0 1 325.9604 462.2073)" class="st1 st4 st5">Built in 1919</text>
<text transform="matrix(1 0 0 1 325.8208 33.3341)" class="st1 st4 st5">Built in 1915</text>
<text transform="matrix(1 0 0 1 234.3464 288.8243)" class="st1 st2 st6">Image based on the book Exploring Shikumen</text>
<g>
	<rect x="104" y="755.2" class="st0" width="592" height="151.8"/>
	<text transform="matrix(1 0 0 1 115.0415 773.4797)"><tspan x="0" y="0" class="st1 st2 st3">The former site of the Central Military Commission of </tspan><tspan x="120.2" y="28.8" class="st1 st2 st3">the Communist Party of China.</tspan><tspan x="125.2" y="57.6" class="st1 st2 st3">No 12, Lane 613, Xinzha Road</tspan></text>
</g>
<text transform="matrix(1 0 0 1 234.3464 723.8245)" class="st1 st2 st6">Image based on the book Exploring Shikumen</text>
<text transform="matrix(1 0 0 1 298.4321 944.0197)" class="st1 st4 st5">Built before 1927</text>
<g>
	<rect x="115" y="1252" class="st0" width="570" height="151.8"/>
	<text transform="matrix(1 0 0 1 130.4985 1270.2921)"><tspan x="0" y="0" class="st1 st2 st3">Memorial Museum of the former Secretariat of the </tspan><tspan x="-12.7" y="28.8" class="st1 st2 st3">Central Committee of the Communist Party of China.</tspan><tspan x="93.3" y="57.6" class="st1 st2 st3">No 10, Lane 673, Jiangning Road</tspan></text>
</g>
<text transform="matrix(1 0 0 1 234.3459 1220.6368)" class="st1 st2 st6">Image based on the book Exploring Shikumen</text>
<line class="st7" x1="221" y1="411.6" x2="579" y2="411.6"/>
<line class="st7" x1="221" y1="874.6" x2="579" y2="874.6"/>
</svg>
