<?xml version="1.0" encoding="utf-8"?>
<!-- Generator: Adobe Illustrator 26.5.0, SVG Export Plug-In . SVG Version: 6.00 Build 0)  -->
<svg version="1.0" id="Layer_1" xmlns="http://www.w3.org/2000/svg" xmlns:xlink="http://www.w3.org/1999/xlink" x="0px" y="0px"
	 viewBox="0 0 800 725.3" style="enable-background:new 0 0 800 725.3;" xml:space="preserve">
<style type="text/css">
	.st0{fill:#231F20;}
	.st1{font-family:'Roboto-Light';}
	.st2{font-size:24px;}
	.st3{fill:none;stroke:#DF582E;stroke-miterlimit:10;}
	.st4{fill:#DF582E;}
</style>
<image style="overflow:visible;" width="469" height="643" xlink:href="1C940DAA83B98DBD.jpg"  transform="matrix(1 0 0 1 135 37.8052)">
</image>
<text transform="matrix(1 0 0 1 653.2656 150.3829)" class="st0 st1 st2">Header</text>
<text transform="matrix(1 0 0 1 653.2656 255.902)" class="st0 st1 st2">Ornaments</text>
<text transform="matrix(1 0 0 1 653.2656 375.7438)"><tspan x="0" y="0" class="st0 st1 st2">Door</tspan><tspan x="0" y="28.8" class="st0 st1 st2">frame</tspan></text>
<text transform="matrix(1 0 0 1 653.2656 491.1564)" class="st0 st1 st2">Pillars</text>
<text transform="matrix(1 0 0 1 653.2656 583.6603)" class="st0 st1 st2">Door</text>
<g>
	<g>
		<line class="st3" x1="641.6" y1="138.3" x2="457.7" y2="138.3"/>
		<g>
			<path class="st4" d="M457.7,134.5c-2.1,0-3.8,1.7-3.8,3.8c0,2.1,1.7,3.8,3.8,3.8c2.1,0,3.8-1.7,3.8-3.8
				C461.5,136.2,459.8,134.5,457.7,134.5z"/>
		</g>
	</g>
</g>
<g>
	<g>
		<line class="st3" x1="641.6" y1="365.9" x2="472.5" y2="365.9"/>
		<g>
			<path class="st4" d="M472.5,362.1c-2.1,0-3.8,1.7-3.8,3.8s1.7,3.8,3.8,3.8c2.1,0,3.8-1.7,3.8-3.8S474.6,362.1,472.5,362.1z"/>
		</g>
	</g>
</g>
<g>
	<g>
		<line class="st3" x1="641.6" y1="246.8" x2="457.7" y2="246.8"/>
		<g>
			<path class="st4" d="M457.7,243c-2.1,0-3.8,1.7-3.8,3.8s1.7,3.8,3.8,3.8c2.1,0,3.8-1.7,3.8-3.8S459.8,243,457.7,243z"/>
		</g>
	</g>
</g>
<g>
	<g>
		<line class="st3" x1="641.6" y1="479.7" x2="553.6" y2="479.7"/>
		<g>
			<path class="st4" d="M553.6,476c-2.1,0-3.8,1.7-3.8,3.8s1.7,3.8,3.8,3.8c2.1,0,3.8-1.7,3.8-3.8S555.7,476,553.6,476z"/>
		</g>
	</g>
</g>
<g>
	<g>
		<line class="st3" x1="641.6" y1="572.2" x2="422.3" y2="572.2"/>
		<g>
			<path class="st4" d="M422.3,568.5c-2.1,0-3.8,1.7-3.8,3.8s1.7,3.8,3.8,3.8c2.1,0,3.8-1.7,3.8-3.8S424.4,568.5,422.3,568.5z"/>
		</g>
	</g>
</g>
</svg>
