<?xml version="1.0" encoding="utf-8"?>
<!-- Generator: Adobe Illustrator 26.5.0, SVG Export Plug-In . SVG Version: 6.00 Build 0)  -->
<svg version="1.0" id="Capa_1" xmlns="http://www.w3.org/2000/svg" xmlns:xlink="http://www.w3.org/1999/xlink" x="0px" y="0px"
	 viewBox="0 0 1920 512" style="enable-background:new 0 0 1920 512;" xml:space="preserve">
<style type="text/css">
	@import url('https://fonts.googleapis.com/css?family=Roboto:300,400,700');
	.st0{fill:#231F20;}
	.st1{font-family:'Roboto';font-weight: 400;}
	.st2{font-size:26px;}
</style>
<image style="overflow:visible;" width="1842" height="354" xlink:href="BD34479182DCF498.jpg"  transform="matrix(1 0 0 1 44 47)">
</image>
<text transform="matrix(1 0 0 1 142.4053 441.8506)"><tspan x="0" y="0" class="st0 st1 st2">Lu Xun</tspan><tspan x="-32.3" y="31.2" class="st0 st1 st2">(1881-1936)</tspan></text>
<text transform="matrix(1 0 0 1 1711.1484 441.8506)"><tspan x="0" y="0" class="st0 st1 st2">Ba Jin</tspan><tspan x="-36.6" y="31.2" class="st0 st1 st2">(1904-2005)</tspan></text>
<text transform="matrix(1 0 0 1 1070.9434 441.8506)"><tspan x="0" y="0" class="st0 st1 st2">Mao Dun</tspan><tspan x="-20.4" y="31.2" class="st0 st1 st2">(1896-1981)</tspan></text>
<text transform="matrix(1 0 0 1 427.689 441.8506)"><tspan x="0" y="0" class="st0 st1 st2">Guo Moruo</tspan><tspan x="-8.3" y="31.2" class="st0 st1 st2">(1892-1978)</tspan></text>
<text transform="matrix(1 0 0 1 1372.7334 441.8506)"><tspan x="0" y="0" class="st0 st1 st2">Ding Ling</tspan><tspan x="-17.8" y="31.2" class="st0 st1 st2">(1904-1986)</tspan></text>
<text transform="matrix(1 0 0 1 765.6201 441.8506)"><tspan x="0" y="0" class="st0 st1 st2">Yu Dafu</tspan><tspan x="-26.6" y="31.2" class="st0 st1 st2">(1896-1945)</tspan></text>
</svg>
