<?xml version="1.0" encoding="utf-8"?>
<!-- Generator: Adobe Illustrator 26.5.0, SVG Export Plug-In . SVG Version: 6.00 Build 0)  -->
<svg version="1.0" id="Layer_1" xmlns="http://www.w3.org/2000/svg" xmlns:xlink="http://www.w3.org/1999/xlink" x="0px" y="0px"
	 viewBox="0 0 800 792.9" style="enable-background:new 0 0 800 792.9;" xml:space="preserve">
<style type="text/css">
	@import url('https://fonts.googleapis.com/css?family=Roboto:300,400,700');
	.st0{fill:none;}
	.st1{fill:#221E1F;}
	.st2{font-family:'Roboto';font-weight: 300;}
	.st3{font-size:24px;}
	.st4{fill:#DF582E;}
	.st5{font-family:'Roboto';font-weight: 700;}
	.st6{font-size:33px;}
	.st7{fill:none;stroke:#231F20;stroke-width:2;stroke-miterlimit:10;}
	.st8{fill:#231F20;}
	.st9{fill:#FFFFFA;}
	.st10{font-size:23px;}
</style>
<image style="overflow:visible;" width="235" height="287" xlink:href="63D2D772ED8AFCA0.jpg"  transform="matrix(1 0 0 1 9 268.8052)">
</image>
<image style="overflow:visible;" width="408" height="776" xlink:href="63D2D772ED8AFCA7.jpg"  transform="matrix(1 0 0 1 383 3.8052)">
</image>
<g>
	<rect x="11.9" y="111.2" class="st0" width="374.3" height="149"/>
	<text transform="matrix(1 0 0 1 11.8799 129.2355)"><tspan x="0" y="0" class="st1 st2 st3">The last room on the first floor is </tspan><tspan x="0" y="28.8" class="st1 st2 st3">the kitchen, whose exterior door </tspan><tspan x="0" y="57.6" class="st1 st2 st3">opens onto the sub-lane. Above the </tspan><tspan x="0" y="86.4" class="st1 st2 st3">kitchen is the garret, whose window </tspan><tspan x="0" y="115.2" class="st1 st2 st3">also faces the sub-lane.</tspan></text>
</g>
<g>
	<rect x="11.9" y="564.9" class="st0" width="328.6" height="164.5"/>
	<text transform="matrix(1 0 0 1 11.8799 582.9122)"><tspan x="0" y="0" class="st1 st2 st3">Wooden doors and windows </tspan><tspan x="0" y="28.8" class="st1 st2 st3">are important components in </tspan><tspan x="0" y="57.6" class="st1 st2 st3">shikumen , serving functions </tspan><tspan x="0" y="86.4" class="st1 st2 st3">such as ventilation, lighting, </tspan><tspan x="0" y="115.2" class="st1 st2 st3">communication and </tspan><tspan x="0" y="144" class="st1 st2 st3">decoration.</tspan></text>
</g>
<g>
	<text transform="matrix(1 0 0 1 14.2197 90.674)" class="st4 st5 st6">REAR FACADE</text>
</g>
<g>
	<g>
		<line class="st7" x1="517.9" y1="377.5" x2="243.4" y2="377.5"/>
		<g>
			<path class="st8" d="M517.5,370c4.2,0,7.5,3.4,7.5,7.5s-3.4,7.5-7.5,7.5c-4.2,0-7.5-3.4-7.5-7.5S513.3,370,517.5,370z"/>
		</g>
	</g>
</g>
<g>
	<rect x="553" y="72.4" class="st8" width="106.9" height="36.5"/>
	<rect x="559.6" y="83.6" class="st0" width="91.4" height="21.6"/>
	<text transform="matrix(1 0 0 1 561.7466 100.8224)" class="st9 st5 st10">Flat roof</text>
</g>
<g>
	<rect x="658.8" y="335.4" class="st8" width="106.9" height="36.5"/>
	<rect x="665.4" y="346.5" class="st0" width="91.4" height="21.6"/>
	<text transform="matrix(1 0 0 1 678.6099 363.7872)" class="st9 st5 st10">Garret</text>
</g>
<g>
	<rect x="659.9" y="549.4" class="st8" width="106.9" height="36.5"/>
	<rect x="666.5" y="560.5" class="st0" width="91.4" height="21.6"/>
	<text transform="matrix(1 0 0 1 672.8721 577.7892)" class="st9 st5 st10">Kitchen</text>
</g>
<g>
	<rect x="340.4" y="690.2" class="st8" width="128" height="36.5"/>
	<rect x="348.9" y="701.3" class="st0" width="116.3" height="21.6"/>
	<text transform="matrix(1 0 0 1 354.8354 718.5997)" class="st9 st5 st10">Back door</text>
</g>
<polygon class="st8" points="465.2,701.4 571.6,701.4 465.2,710.8 "/>
<polygon class="st8" points="741.8,585.9 750.5,614.4 750.5,585.9 "/>
<polygon class="st8" points="665.4,368.2 665.4,398.2 676.7,368.2 "/>
<polygon class="st8" points="611.5,108.9 618.8,130.2 618.8,108.9 "/>
</svg>
