<?xml version="1.0" encoding="utf-8"?>
<!-- Generator: Adobe Illustrator 26.5.0, SVG Export Plug-In . SVG Version: 6.00 Build 0)  -->
<svg version="1.1" id="Layer_1" xmlns="http://www.w3.org/2000/svg" xmlns:xlink="http://www.w3.org/1999/xlink" x="0px" y="0px"
	 viewBox="0 0 800 594.6" style="enable-background:new 0 0 800 594.6;" xml:space="preserve">
<style type="text/css">
	.st0{fill:#221E1F;}
	.st1{font-family:'Roboto-Light';}
	.st2{font-size:24px;}
	.st3{fill:#231F20;}
	.st4{font-family:'Roboto-Bold';}
	.st5{font-size:20px;}
	.st6{fill:none;stroke:#231F20;stroke-miterlimit:10;}
</style>
<image style="overflow:visible;enable-background:new    ;" width="800" height="502" xlink:href="sub-lane-life-02.gif"  transform="matrix(1.0225 0 0 1.0225 -9.0187 75.8408)">
</image>
<g>
	<text transform="matrix(1 0 0 1 11.5942 27.0205)" class="st0 st1 st2">The houses in longtangs, generally two storied, are proximately attached to </text>
	<text transform="matrix(1 0 0 1 95.5903 60.104)" class="st0 st1 st2">each other in rows, sharing the same front and back lanes.</text>
</g>
<text transform="matrix(1 0 0 1 459.543 147.1509)" class="st3 st4 st5">Front</text>
<text transform="matrix(1 0 0 1 462.213 165.1509)" class="st3 st4 st5">door</text>
<text transform="matrix(1 0 0 1 387.3813 147.1509)" class="st3 st4 st5">Back</text>
<text transform="matrix(1 0 0 1 388.7613 165.1509)" class="st3 st4 st5">door</text>
<path class="st6" d="M408.1,178.2c0,0-31.4,84.4-103.1,120.1"/>
<path class="st6" d="M479,178.2c0,0,28.8,100.1,138.5,125.3"/>
</svg>
