<?xml version="1.0" encoding="utf-8"?>
<!-- Generator: Adobe Illustrator 30.0.0, SVG Export Plug-In . SVG Version: 9.03 Build 0)  -->
<svg version="1.0" id="Layer_1" xmlns="http://www.w3.org/2000/svg" xmlns:xlink="http://www.w3.org/1999/xlink" x="0px" y="0px"
	 viewBox="0 0 800 594.58" style="enable-background:new 0 0 800 594.58;" xml:space="preserve">
<style type="text/css">
	@import url('https://fonts.googleapis.com/css?family=Roboto:300,400,700');
	.st0{fill:#211D1E;}
	.st1{fill:#FFFFFF;}
	.st2{font-family:'Roboto';font-weight: 700;}
	.st3{font-size:22px;}
	.st4{fill:#DF582E;}
	.st5{fill:none;}
	.st6{fill:#221E1F;}
	.st7{font-family:'Roboto';font-weight: 300;}
	.st8{font-size:20px;}
</style>
<image style="overflow:visible;" width="795" height="409" xlink:href="FE4BFD6D750831B6.jpg"  transform="matrix(1 0 0 1 3 53.7917)">
</image>
<g>
	<path class="st0" d="M143.09,74.26H44.87c-1.46,0-2.64-1.18-2.64-2.64V42.54c0-1.46,1.18-2.64,2.64-2.64h98.21
		c1.46,0,2.64,1.18,2.64,2.64v29.08C145.72,73.08,144.54,74.26,143.09,74.26z"/>
	<text transform="matrix(1 0 0 1 50.8237 64.8171)" class="st1 st2 st3">Sub-lane </text>
</g>
<polygon class="st0" points="64.85,71.03 74.54,131.32 76.69,69.95 "/>
<g>
	<rect x="355.5" y="487.08" class="st4" width="64" height="38"/>
	<polygon class="st4" points="439.49,525.08 387.5,577.07 335.51,525.08 	"/>
</g>
<rect x="465.33" y="518.76" class="st5" width="189.55" height="82.25"/>
<text transform="matrix(1 0 0 1 465.3291 533.7592)"><tspan x="0" y="0" class="st6 st7 st8">See below  how is </tspan><tspan x="0" y="24" class="st6 st7 st8">one house inside</tspan></text>
<rect x="13.41" y="486.84" class="st5" width="299.29" height="90.23"/>
<text transform="matrix(1 0 0 1 69.0164 503.3405)"><tspan x="0" y="0" class="st6 st7 st3">In one sub-lane, there is a </tspan><tspan x="-36.5" y="26.4" class="st6 st7 st3">significant number of houses </tspan><tspan x="116.06" y="52.8" class="st6 st7 st3">built in a row.</tspan></text>
</svg>
